<?xml version="1.0" encoding="utf-8"?>
<!-- Generator: Adobe Illustrator 27.0.0, SVG Export Plug-In . SVG Version: 6.00 Build 0)  -->
<svg version="1.1" id="Layer_1" xmlns="http://www.w3.org/2000/svg" xmlns:xlink="http://www.w3.org/1999/xlink" x="0px" y="0px"
	 viewBox="0 0 595.3 841.9" style="enable-background:new 0 0 595.3 841.9;" xml:space="preserve">
<style type="text/css">
	.st0{fill:none;}
	.st1{fill:none;stroke:#000000;stroke-width:6;stroke-miterlimit:10;}
	.st2{font-family:'MyriadPro-Regular';}
	.st3{font-size:68px;}
	.st4{stroke:#000000;stroke-width:6;stroke-miterlimit:10;}
	.st5{fill:none;stroke:#000000;stroke-width:12;stroke-miterlimit:10;}
</style>
<rect x="171.5" y="304.7" class="st0" width="260.8" height="101.2"/>
<text transform="matrix(1 0 0 1 194.4415 383.7238)" class="st1 st2 st3">HONAR</text>
<rect x="241.6" y="476.1" class="st0" width="165.5" height="68.8"/>
<text transform="matrix(1 0 0 1 264.1388 534.6743)" class="st2 st3">ADE</text>
<text transform="matrix(1 0 0 1 264.1388 534.6743)" class="st1 st2 st3">ADE</text>
<path class="st1" d="M158.6,332.5v262c0,1.6,1.3,3,3,3l0,0c1.6,0,3-1.3,3-3v-262c0-1.6-1.3-3-3-3l0,0
	C159.9,329.5,158.6,330.9,158.6,332.5z"/>
<path class="st1" d="M437.4,331.8v262c0,1.6,1.3,3,3,3l0,0c1.6,0,3-1.3,3-3v-262c0-1.6-1.3-3-3-3l0,0
	C438.7,328.8,437.4,330.1,437.4,331.8z"/>
<path class="st1" d="M297.5,164.8L112.3,350.1c-1.2,1.2-1.2,3,0,4.2l0,0c1.2,1.2,3,1.2,4.2,0L301.8,169c1.2-1.2,1.2-3,0-4.2l0,0
	C300.6,163.7,298.7,163.7,297.5,164.8z"/>
<path class="st1" d="M302.4,164.8l185.3,185.3c1.2,1.2,1.2,3,0,4.2l0,0c-1.2,1.2-3,1.2-4.2,0L298.2,169c-1.2-1.2-1.2-3,0-4.2l0,0
	C299.4,163.7,301.3,163.7,302.4,164.8z"/>
<path class="st1" d="M193.3,434h-30.1c-1.6,0-3,1.3-3,3l0,0c0,1.6,1.3,3,3,3h30.1c1.6,0,3-1.3,3-3l0,0
	C196.3,435.3,195,434,193.3,434z"/>
<rect x="206.2" y="412.5" class="st4" width="7.9" height="54.8"/>
<path class="st1" d="M248.1,432.5h190c1.6,0,3,1.3,3,3l0,0c0,1.6-1.3,3-3,3h-190c-1.6,0-3-1.3-3-3l0,0
	C245.1,433.9,246.5,432.5,248.1,432.5z"/>
<polyline class="st5" points="247.4,410.9 216.9,439.4 249.8,467.9 "/>
<path class="st1" d="M252.6,542.8h150.1l4.3,5c0,0,1.4,5,0.7,6.4c-0.7,1.4-3.9,5.3-3.9,5.3l-5.4-0.4l-12.1,0.4l-124.8-2.1h-31"/>
<image style="overflow:visible;" width="420" height="594" xlink:href="pen-removebg-preview.png"  transform="matrix(-0.1697 0 0 0.1709 240.5737 476.3846)">
</image>
<rect x="293.1" y="339.6" class="st1" width="3.8" height="4.5"/>
<rect x="320.5" y="376.5" class="st1" width="1.5" height="4.5"/>
<rect x="276.7" y="347.5" class="st1" width="1" height="14.5"/>
<rect x="278.4" y="365.9" class="st1" width="2" height="2.5"/>
<rect x="245.7" y="352.3" class="st1" width="1.3" height="20.6"/>
</svg>
